<?xml version="1.0" encoding="UTF-8" standalone="no"?>
<!DOCTYPE svg PUBLIC "-//W3C//DTD SVG 1.1//EN"
 "http://www.w3.org/Graphics/SVG/1.1/DTD/svg11.dtd">
<!-- Generated by graphviz version 2.43.0 (0)
 -->
<!-- Title: %3 Pages: 1 -->
<svg width="1415pt" height="122pt"
 viewBox="0.00 0.00 1415.18 121.57" xmlns="http://www.w3.org/2000/svg" xmlns:xlink="http://www.w3.org/1999/xlink">
<g id="graph0" class="graph" transform="scale(1 1) rotate(0) translate(4 117.57)">
<title>%3</title>
<polygon fill="white" stroke="transparent" points="-4,4 -4,-117.57 1411.18,-117.57 1411.18,4 -4,4"/>
<!-- Client -->
<g id="node1" class="node">
<title>Client</title>
<ellipse fill="none" stroke="black" cx="93.59" cy="-44.57" rx="93.68" ry="18"/>
<text text-anchor="middle" x="93.59" y="-40.87" font-family="Times,serif" font-size="14.00">Client Application</text>
</g>
<!-- Gateway -->
<g id="node2" class="node">
<title>Gateway</title>
<polygon fill="none" stroke="black" points="372.18,-62.57 264.18,-62.57 264.18,-26.57 372.18,-26.57 372.18,-62.57"/>
<text text-anchor="middle" x="318.18" y="-40.87" font-family="Times,serif" font-size="14.00">API Gateway</text>
</g>
<!-- Client&#45;&gt;Gateway -->
<g id="edge1" class="edge">
<title>Client&#45;&gt;Gateway</title>
<path fill="none" stroke="black" d="M187.38,-44.57C209.73,-44.57 233.1,-44.57 253.76,-44.57"/>
<polygon fill="black" stroke="black" points="253.97,-48.07 263.97,-44.57 253.97,-41.07 253.97,-48.07"/>
<text text-anchor="middle" x="225.68" y="-48.37" font-family="Times,serif" font-size="14.00">HTTP</text>
</g>
<!-- Auth -->
<g id="node3" class="node">
<title>Auth</title>
<polygon fill="none" stroke="black" points="574.18,-97.57 466.18,-97.57 466.18,-61.57 574.18,-61.57 574.18,-97.57"/>
<text text-anchor="middle" x="520.18" y="-75.87" font-family="Times,serif" font-size="14.00">Auth Service</text>
</g>
<!-- Gateway&#45;&gt;Auth -->
<g id="edge2" class="edge">
<title>Gateway&#45;&gt;Auth</title>
<path fill="none" stroke="black" d="M372.25,-53.86C397.91,-58.35 428.89,-63.77 455.78,-68.48"/>
<polygon fill="black" stroke="black" points="455.41,-71.96 465.86,-70.24 456.62,-65.07 455.41,-71.96"/>
<text text-anchor="middle" x="419.18" y="-69.37" font-family="Times,serif" font-size="14.00">validate</text>
</g>
<!-- Order -->
<g id="node4" class="node">
<title>Order</title>
<polygon fill="none" stroke="black" points="766.18,-62.57 650.18,-62.57 650.18,-26.57 766.18,-26.57 766.18,-62.57"/>
<text text-anchor="middle" x="708.18" y="-40.87" font-family="Times,serif" font-size="14.00">Order Service</text>
</g>
<!-- Gateway&#45;&gt;Order -->
<g id="edge3" class="edge">
<title>Gateway&#45;&gt;Order</title>
<path fill="none" stroke="black" d="M372.23,-41.43C400.18,-39.94 435.02,-38.31 466.18,-37.57 514.17,-36.43 526.2,-36.31 574.18,-37.57 595.54,-38.13 618.8,-39.2 639.81,-40.34"/>
<polygon fill="black" stroke="black" points="639.75,-43.84 649.93,-40.9 640.14,-36.85 639.75,-43.84"/>
<text text-anchor="middle" x="520.18" y="-41.37" font-family="Times,serif" font-size="14.00">route</text>
</g>
<!-- Auth&#45;&gt;Order -->
<g id="edge4" class="edge">
<title>Auth&#45;&gt;Order</title>
<path fill="none" stroke="black" d="M574.48,-69.54C594.87,-65.7 618.39,-61.28 639.92,-57.23"/>
<polygon fill="black" stroke="black" points="640.79,-60.62 649.97,-55.34 639.5,-53.75 640.79,-60.62"/>
<text text-anchor="middle" x="612.18" y="-68.37" font-family="Times,serif" font-size="14.00">token</text>
</g>
<!-- Queue -->
<g id="node6" class="node">
<title>Queue</title>
<polygon fill="none" stroke="black" points="973.18,-110.57 843.18,-110.57 843.18,-74.57 973.18,-74.57 973.18,-110.57"/>
<text text-anchor="middle" x="908.18" y="-88.87" font-family="Times,serif" font-size="14.00">Message Queue</text>
</g>
<!-- Order&#45;&gt;Queue -->
<g id="edge5" class="edge">
<title>Order&#45;&gt;Queue</title>
<path fill="none" stroke="black" d="M766.49,-59.19C772.46,-60.68 778.44,-62.17 784.18,-63.57 799.98,-67.43 816.94,-71.49 833.06,-75.31"/>
<polygon fill="black" stroke="black" points="832.44,-78.75 842.98,-77.65 834.05,-71.94 832.44,-78.75"/>
<text text-anchor="middle" x="804.68" y="-76.37" font-family="Times,serif" font-size="14.00">async</text>
</g>
<!-- Cache -->
<g id="node7" class="node">
<title>Cache</title>
<polygon fill="none" stroke="black" points="1096.18,-62.57 991.18,-62.57 991.18,-26.57 1096.18,-26.57 1096.18,-62.57"/>
<text text-anchor="middle" x="1043.68" y="-40.87" font-family="Times,serif" font-size="14.00">Cache Layer</text>
</g>
<!-- Order&#45;&gt;Cache -->
<g id="edge6" class="edge">
<title>Order&#45;&gt;Cache</title>
<path fill="none" stroke="black" d="M766.51,-44.57C826.2,-44.57 919.36,-44.57 980.71,-44.57"/>
<polygon fill="black" stroke="black" points="981.02,-48.07 991.02,-44.57 981.02,-41.07 981.02,-48.07"/>
<text text-anchor="middle" x="804.68" y="-48.37" font-family="Times,serif" font-size="14.00">cache</text>
</g>
<!-- DB -->
<g id="node8" class="node">
<title>DB</title>
<path fill="none" stroke="black" d="M1407.18,-59.3C1407.18,-61.1 1388.58,-62.57 1365.68,-62.57 1342.78,-62.57 1324.18,-61.1 1324.18,-59.3 1324.18,-59.3 1324.18,-29.84 1324.18,-29.84 1324.18,-28.04 1342.78,-26.57 1365.68,-26.57 1388.58,-26.57 1407.18,-28.04 1407.18,-29.84 1407.18,-29.84 1407.18,-59.3 1407.18,-59.3"/>
<path fill="none" stroke="black" d="M1407.18,-59.3C1407.18,-57.49 1388.58,-56.03 1365.68,-56.03 1342.78,-56.03 1324.18,-57.49 1324.18,-59.3"/>
<text text-anchor="middle" x="1365.68" y="-40.87" font-family="Times,serif" font-size="14.00">Database</text>
</g>
<!-- Order&#45;&gt;DB -->
<g id="edge7" class="edge">
<title>Order&#45;&gt;DB</title>
<path fill="none" stroke="black" d="M766.45,-31.67C841.9,-16.2 978.78,6.56 1096.18,-2.57 1172.63,-8.51 1260.23,-23.84 1314.01,-34.24"/>
<polygon fill="black" stroke="black" points="1313.49,-37.7 1323.98,-36.18 1314.83,-30.83 1313.49,-37.7"/>
<text text-anchor="middle" x="1043.68" y="-6.37" font-family="Times,serif" font-size="14.00">persist</text>
</g>
<!-- Payment -->
<g id="node5" class="node">
<title>Payment</title>
<polygon fill="none" stroke="black" points="1251.18,-113.57 1114.18,-113.57 1114.18,-77.57 1251.18,-77.57 1251.18,-113.57"/>
<text text-anchor="middle" x="1182.68" y="-91.87" font-family="Times,serif" font-size="14.00">Payment Service</text>
</g>
<!-- Payment&#45;&gt;DB -->
<g id="edge9" class="edge">
<title>Payment&#45;&gt;DB</title>
<path fill="none" stroke="black" d="M1247.75,-77.52C1269.6,-71.36 1293.7,-64.57 1314.32,-58.76"/>
<polygon fill="black" stroke="black" points="1315.46,-62.08 1324.13,-56 1313.56,-55.34 1315.46,-62.08"/>
<text text-anchor="middle" x="1287.68" y="-73.37" font-family="Times,serif" font-size="14.00">store</text>
</g>
<!-- Queue&#45;&gt;Payment -->
<g id="edge8" class="edge">
<title>Queue&#45;&gt;Payment</title>
<path fill="none" stroke="black" d="M973.42,-93.28C1012.52,-93.71 1062.73,-94.26 1104.05,-94.72"/>
<polygon fill="black" stroke="black" points="1104.04,-98.22 1114.08,-94.83 1104.12,-91.22 1104.04,-98.22"/>
<text text-anchor="middle" x="1043.68" y="-98.37" font-family="Times,serif" font-size="14.00">process</text>
</g>
<!-- Cache&#45;&gt;DB -->
<g id="edge10" class="edge">
<title>Cache&#45;&gt;DB</title>
<path fill="none" stroke="black" d="M1096.45,-44.57C1156.36,-44.57 1254.37,-44.57 1313.87,-44.57"/>
<polygon fill="black" stroke="black" points="1314.15,-48.07 1324.15,-44.57 1314.15,-41.07 1314.15,-48.07"/>
<text text-anchor="middle" x="1182.68" y="-48.37" font-family="Times,serif" font-size="14.00">reads</text>
</g>
</g>
</svg>
